<svg version="1.1" id="Layer_1" xmlns="http://www.w3.org/2000/svg" xmlns:xlink="http://www.w3.org/1999/xlink" x="0px" y="0px"
	 width="100%" viewBox="0 0 892 591" enable-background="new 0 0 892 591" xml:space="preserve">
<path fill="#000000" opacity="1.000000" stroke="none" 
	d="
M1.000000,190.000000 
	C1.000000,126.666664 1.000000,63.833332 1.000000,1.000000 
	C298.333344,1.000000 595.666687,1.000000 893.000000,1.000000 
	C893.000000,198.000000 893.000000,395.000000 893.000000,592.000000 
	C595.666687,592.000000 298.333344,592.000000 1.000000,592.000000 
	C1.000000,458.166656 1.000000,324.333344 1.000000,190.000000 
M555.055176,507.041504 
	C554.055664,507.059387 553.056152,507.092957 552.056641,507.092926 
	C403.612762,507.088104 255.168884,507.080811 106.725014,507.073730 
	C97.265831,507.073303 87.806648,507.073669 78.347466,507.073669 
	C79.732338,507.822052 81.134178,507.939850 82.536003,507.939697 
	C238.310547,507.922882 394.085083,507.900696 549.859619,507.838776 
	C552.135437,507.837860 554.411072,507.335419 557.342896,507.320068 
	C558.740540,508.458191 560.454895,509.366699 561.477417,510.776825 
	C564.735352,515.269714 567.206116,520.450562 570.970825,524.428955 
	C575.630249,529.352844 580.924683,533.883179 586.593750,537.591492 
	C593.589905,542.167847 601.095215,546.058960 608.667969,549.637817 
	C618.864441,554.456665 629.094299,559.398560 639.735962,563.043762 
	C666.432251,572.188599 694.092285,573.216370 721.737000,569.465454 
	C740.455139,566.925781 759.288330,563.572998 775.627380,552.768494 
	C776.564331,552.148926 777.818420,552.020264 778.908936,551.619446 
	C782.004150,550.481750 785.514954,549.906433 788.088440,548.041809 
	C792.695007,544.704041 796.584961,540.396912 801.041321,536.828125 
	C812.824890,527.391663 824.708801,517.998352 833.576843,505.636200 
	C841.232727,494.963837 849.515076,484.427795 855.188110,472.702972 
	C874.697144,432.382202 878.062500,390.285889 865.426331,347.229279 
	C862.015991,335.609009 858.198364,323.904144 852.776184,313.140625 
	C848.119202,303.896088 840.854797,295.975128 834.843018,287.399017 
	C831.443481,282.549377 828.495605,277.362762 824.855164,272.710632 
	C822.887329,270.195953 819.859253,268.523468 817.366394,266.404114 
	C813.904419,263.460968 810.495972,260.454895 807.582092,257.107635 
	C807.670959,255.915268 807.759888,254.722885 807.848816,253.530518 
	C807.623596,253.520035 807.398376,253.509567 807.173218,253.499084 
	C807.034241,254.441910 806.895325,255.384720 806.319397,255.552567 
	C805.887085,252.288483 805.082336,249.024918 805.077759,245.760254 
	C804.998840,189.261993 804.983459,132.763535 805.050781,76.265251 
	C805.062073,66.814842 802.754700,58.081070 797.721008,50.167778 
	C786.401245,32.372482 769.607056,24.977333 749.019897,24.977417 
	C597.857666,24.978045 446.695465,24.970171 295.533264,24.967138 
	C225.701996,24.965736 155.869675,24.759106 86.040154,25.107502 
	C66.855606,25.203218 50.164814,31.472969 39.485580,49.145996 
	C34.064537,58.117260 30.998516,67.534340 30.994936,77.967049 
	C30.982473,114.299339 30.980553,150.631622 31.008776,186.963898 
	C31.010712,189.455261 31.069933,191.984650 31.488091,194.430435 
	C32.717312,201.620041 36.250710,205.253479 43.446564,206.712845 
	C47.689476,207.573334 51.973488,208.337799 56.276657,208.774979 
	C70.355789,210.205399 82.827911,215.579910 93.148773,225.043472 
	C109.968147,240.465775 118.403198,259.453552 113.370979,282.447266 
	C111.594696,290.563660 108.347481,298.893555 103.681358,305.690918 
	C99.051918,312.434875 92.187798,317.888031 85.582848,322.970459 
	C77.523743,329.171875 67.892967,332.114044 57.754032,333.207794 
	C53.450348,333.672089 49.122467,334.041565 44.867573,334.801300 
	C36.414799,336.310608 33.092243,339.674316 31.567455,348.099365 
	C31.125645,350.540527 31.014265,353.069183 31.011778,355.558014 
	C30.978636,388.723724 31.166971,421.890625 30.939198,455.054810 
	C30.750080,482.590302 53.724094,505.398773 80.985764,505.200684 
	C146.646942,504.723633 212.313995,505.056213 277.978668,505.054840 
	C367.809357,505.052948 457.640045,505.026550 547.470642,505.119537 
	C550.310547,505.122498 553.149231,506.324585 555.055176,507.041504 
M321.500031,22.999876 
	C464.497833,22.999876 607.495667,22.999876 750.493469,22.999876 
	C750.493164,22.753893 750.492859,22.507908 750.492554,22.261925 
	C528.726257,22.261925 306.959900,22.261925 85.193550,22.261925 
	C85.193336,22.506821 85.193123,22.751719 85.192909,22.996614 
	C163.628601,22.996614 242.064301,22.996614 321.500031,22.999876 
M28.985750,444.392212 
	C28.985750,421.160980 28.985750,397.929779 28.985750,374.698547 
	C28.763403,374.701508 28.541054,374.704437 28.318707,374.707397 
	C28.318707,400.714722 28.318707,426.722046 28.318707,452.729370 
	C28.560511,452.729858 28.802315,452.730347 29.044119,452.730835 
	C29.044119,450.267456 29.044119,447.804047 28.985750,444.392212 
M29.007919,174.492584 
	C29.007919,162.292892 29.007919,150.093201 29.007919,137.893509 
	C28.669777,137.896454 28.331636,137.899399 27.993494,137.902344 
	C27.993494,154.875336 27.993494,171.848328 27.993494,188.821304 
	C28.332460,188.825684 28.671429,188.830063 29.010395,188.834442 
	C29.010395,184.385651 29.010395,179.936844 29.007919,174.492584 
M807.960815,241.321030 
	C807.960815,237.430618 807.960815,233.540222 807.960815,229.649811 
	C807.719604,229.652908 807.478394,229.655991 807.237183,229.659088 
	C807.237183,235.788879 807.237183,241.918671 807.237183,248.048462 
	C807.480713,248.050125 807.724182,248.051788 807.967712,248.053452 
	C807.967712,246.113449 807.967712,244.173447 807.960815,241.321030 
M42.096203,208.501984 
	C42.096203,208.501984 41.913902,208.433472 41.913902,208.433472 
	C41.913902,208.433472 42.027996,208.582718 42.096203,208.501984 
M635.111694,563.503845 
	C635.111694,563.503845 634.901733,563.427307 634.901733,563.427307 
	C634.901733,563.427307 635.033997,563.596497 635.111694,563.503845 
M630.535461,561.489014 
	C630.535461,561.489014 630.483337,561.508057 630.535461,561.489014 
M756.511414,562.529541 
	C756.511414,562.529541 756.495239,562.481567 756.511414,562.529541 
z"/>
<path fill="#111212" opacity="1.000000" stroke="none" 
	d="
M807.064636,257.475769 
	C810.495972,260.454895 813.904419,263.460968 817.366394,266.404114 
	C819.859253,268.523468 822.887329,270.195953 824.855164,272.710632 
	C828.495605,277.362762 831.443481,282.549377 834.843018,287.399017 
	C840.854797,295.975128 848.119202,303.896088 852.776184,313.140625 
	C858.198364,323.904144 862.015991,335.609009 865.426331,347.229279 
	C878.062500,390.285889 874.697144,432.382202 855.188110,472.702972 
	C849.515076,484.427795 841.232727,494.963837 833.576843,505.636200 
	C824.708801,517.998352 812.824890,527.391663 801.041321,536.828125 
	C796.584961,540.396912 792.695007,544.704041 788.088440,548.041809 
	C785.514954,549.906433 782.004150,550.481750 778.908936,551.619446 
	C777.818420,552.020264 776.564331,552.148926 775.627380,552.768494 
	C759.288330,563.572998 740.455139,566.925781 721.737000,569.465454 
	C694.092285,573.216370 666.432251,572.188599 639.735962,563.043762 
	C629.094299,559.398560 618.864441,554.456665 608.667969,549.637817 
	C601.095215,546.058960 593.589905,542.167847 586.593750,537.591492 
	C580.924683,533.883179 575.630249,529.352844 570.970825,524.428955 
	C567.206116,520.450562 564.735352,515.269714 561.477417,510.776825 
	C560.454895,509.366699 558.740540,508.458191 556.836975,507.191833 
	C556.331055,507.063568 555.988525,506.967651 555.988525,506.967651 
	C553.149231,506.324585 550.310547,505.122498 547.470642,505.119537 
	C457.640045,505.026550 367.809357,505.052948 277.978668,505.054840 
	C212.313995,505.056213 146.646942,504.723633 80.985764,505.200684 
	C53.724094,505.398773 30.750080,482.590302 30.939198,455.054810 
	C31.166971,421.890625 30.978636,388.723724 31.011778,355.558014 
	C31.014265,353.069183 31.125645,350.540527 31.567455,348.099365 
	C33.092243,339.674316 36.414799,336.310608 44.867573,334.801300 
	C49.122467,334.041565 53.450348,333.672089 57.754032,333.207794 
	C67.892967,332.114044 77.523743,329.171875 85.582848,322.970459 
	C92.187798,317.888031 99.051918,312.434875 103.681358,305.690918 
	C108.347481,298.893555 111.594696,290.563660 113.370979,282.447266 
	C118.403198,259.453552 109.968147,240.465775 93.148773,225.043472 
	C82.827911,215.579910 70.355789,210.205399 56.276657,208.774979 
	C51.973488,208.337799 47.689476,207.573334 43.446564,206.712845 
	C36.250710,205.253479 32.717312,201.620041 31.488091,194.430435 
	C31.069933,191.984650 31.010712,189.455261 31.008776,186.963898 
	C30.980553,150.631622 30.982473,114.299339 30.994936,77.967049 
	C30.998516,67.534340 34.064537,58.117260 39.485580,49.145996 
	C50.164814,31.472969 66.855606,25.203218 86.040154,25.107502 
	C155.869675,24.759106 225.701996,24.965736 295.533264,24.967138 
	C446.695465,24.970171 597.857666,24.978045 749.019897,24.977417 
	C769.607056,24.977333 786.401245,32.372482 797.721008,50.167778 
	C802.754700,58.081070 805.062073,66.814842 805.050781,76.265251 
	C804.983459,132.763535 804.998840,189.261993 805.077759,245.760254 
	C805.082336,249.024918 805.887085,252.288483 806.609253,256.073273 
	C807.021667,256.876343 807.076843,257.170258 807.064636,257.475769 
M60.151119,458.508789 
	C60.216850,458.875977 60.282585,459.243134 60.112118,460.259094 
	C59.233833,465.631531 62.411591,469.146515 66.034210,472.125092 
	C71.866196,476.920349 78.525566,479.085388 86.320000,479.078400 
	C232.306030,478.947479 378.292236,478.987183 524.278381,478.986176 
	C526.110901,478.986145 527.952820,479.027527 529.774170,478.866150 
	C535.800354,478.332092 536.713135,476.298859 534.739502,470.723755 
	C530.302612,458.190887 525.674683,445.676331 522.210938,432.860687 
	C517.772766,416.439728 518.215576,399.408112 519.241882,382.646179 
	C520.000183,370.261658 521.766296,357.660065 525.207153,345.769775 
	C536.427063,306.998352 558.866394,275.928802 591.917053,252.520432 
	C619.646545,232.880783 650.572998,222.760544 684.296692,221.045883 
	C713.178589,219.577423 741.060913,224.275909 767.714783,235.803558 
	C774.200684,238.608688 775.886719,237.439896 775.930176,230.450470 
	C776.031616,214.119293 775.987427,197.787231 775.999268,181.455521 
	C776.003723,175.331818 776.000000,169.208099 776.000000,163.084396 
	C776.379578,163.084976 776.759155,163.085556 777.138733,163.086136 
	C777.138733,186.928513 777.138733,210.770889 777.138733,234.613251 
	C777.893066,233.941574 777.966919,233.279007 777.966980,232.616440 
	C777.972290,181.287994 778.027893,129.959457 777.935547,78.631187 
	C777.909790,64.304535 767.027100,53.423988 752.596741,53.087311 
	C743.269226,52.869690 733.932922,53.018688 724.600586,53.018620 
	C511.787354,53.016994 298.973938,53.119682 86.161140,52.815933 
	C69.823097,52.792618 57.876247,66.196465 57.973583,79.587250 
	C58.203724,111.249146 58.000282,142.914047 58.130604,174.577087 
	C58.139370,176.707382 59.471455,178.832245 60.814793,180.969711 
	C61.226883,181.034271 61.638973,181.098846 62.587009,181.617630 
	C64.147156,182.114532 65.709023,182.606110 67.267159,183.109238 
	C75.646729,185.814957 84.063286,188.414078 92.382217,191.295029 
	C95.023170,192.209625 97.271889,194.544174 99.928864,195.067581 
	C106.183250,196.299606 110.175034,200.549103 114.877266,204.224884 
	C122.695976,210.336807 124.828026,220.076477 130.923843,227.128082 
	C135.384064,232.287628 137.224243,238.114578 138.784683,244.709610 
	C142.715530,261.323059 143.086105,277.715027 138.804657,294.159027 
	C136.888550,301.518250 135.092499,309.103088 131.730759,315.830383 
	C129.018341,321.258301 124.642494,326.284973 119.924728,330.182495 
	C112.374756,336.419830 105.741402,343.707886 96.458351,348.079346 
	C86.261719,352.880981 76.020302,356.922607 64.970596,359.019257 
	C63.252953,359.345123 61.661945,360.338348 59.505669,361.567688 
	C59.020393,363.453552 58.118729,365.338013 58.112335,367.225494 
	C58.017185,395.318390 57.998310,423.411896 58.118767,451.504547 
	C58.128033,453.666595 59.315964,455.823608 60.151119,458.508789 
M626.681152,527.828369 
	C635.702515,531.228394 644.571777,535.128906 653.776611,537.925049 
	C673.376526,543.879089 693.495728,543.964905 713.717896,542.086426 
	C739.076477,539.730591 762.013489,530.425598 782.683899,516.203979 
	C800.951111,503.635895 815.543884,487.238770 826.536865,467.707764 
	C837.983337,447.370941 844.079041,425.433624 844.918335,402.412231 
	C845.984436,373.168579 838.973572,345.545868 823.434998,320.477936 
	C811.889954,301.852692 797.330750,285.843109 778.959656,273.812469 
	C751.300232,255.699203 720.824707,246.549454 687.627930,248.091202 
	C663.641235,249.205185 641.131104,255.788300 620.285767,268.029358 
	C604.176086,277.489441 590.507263,289.526611 578.454041,303.782257 
	C565.054321,319.630463 555.334106,337.460663 550.481323,357.366791 
	C542.519836,390.024597 543.367798,422.648682 557.066956,453.859558 
	C561.913208,464.900726 568.034546,475.761963 575.512634,485.163116 
	C583.250549,494.890900 593.805603,502.322205 602.257690,511.555115 
	C609.017944,518.939819 617.996582,522.348755 626.681152,527.828369 
M785.481018,547.521301 
	C785.481018,547.521301 785.521423,547.511414 785.481018,547.521301 
z"/>
<path fill="#464545" opacity="1.000000" stroke="none" 
	d="
M321.000000,22.998245 
	C242.064301,22.996614 163.628601,22.996614 85.192909,22.996614 
	C85.193123,22.751719 85.193336,22.506821 85.193550,22.261925 
	C306.959900,22.261925 528.726257,22.261925 750.492554,22.261925 
	C750.492859,22.507908 750.493164,22.753893 750.493469,22.999876 
	C607.495667,22.999876 464.497833,22.999876 321.000000,22.998245 
z"/>
<path fill="#464545" opacity="1.000000" stroke="none" 
	d="
M555.521851,507.004578 
	C555.988525,506.967651 556.331055,507.063568 556.508911,507.065308 
	C554.411072,507.335419 552.135437,507.837860 549.859619,507.838776 
	C394.085083,507.900696 238.310547,507.922882 82.536003,507.939697 
	C81.134178,507.939850 79.732338,507.822052 78.347466,507.073669 
	C87.806648,507.073669 97.265831,507.073303 106.725014,507.073730 
	C255.168884,507.080811 403.612762,507.088104 552.056641,507.092926 
	C553.056152,507.092957 554.055664,507.059387 555.521851,507.004578 
z"/>
<path fill="#464545" opacity="1.000000" stroke="none" 
	d="
M29.014935,444.866425 
	C29.044119,447.804047 29.044119,450.267456 29.044119,452.730835 
	C28.802315,452.730347 28.560511,452.729858 28.318707,452.729370 
	C28.318707,426.722046 28.318707,400.714722 28.318707,374.707397 
	C28.541054,374.704437 28.763403,374.701508 28.985750,374.698547 
	C28.985750,397.929779 28.985750,421.160980 29.014935,444.866425 
z"/>
<path fill="#464545" opacity="1.000000" stroke="none" 
	d="
M29.009157,174.990311 
	C29.010395,179.936844 29.010395,184.385651 29.010395,188.834442 
	C28.671429,188.830063 28.332460,188.825684 27.993494,188.821304 
	C27.993494,171.848328 27.993494,154.875336 27.993494,137.902344 
	C28.331636,137.899399 28.669777,137.896454 29.007919,137.893509 
	C29.007919,150.093201 29.007919,162.292892 29.009157,174.990311 
z"/>
<path fill="#464545" opacity="1.000000" stroke="none" 
	d="
M807.964233,241.777237 
	C807.967712,244.173447 807.967712,246.113449 807.967712,248.053452 
	C807.724182,248.051788 807.480713,248.050125 807.237183,248.048462 
	C807.237183,241.918671 807.237183,235.788879 807.237183,229.659088 
	C807.478394,229.655991 807.719604,229.652908 807.960815,229.649811 
	C807.960815,233.540222 807.960815,237.430618 807.964233,241.777237 
z"/>
<path fill="#464545" opacity="1.000000" stroke="none" 
	d="
M807.323364,257.291687 
	C807.076843,257.170258 807.021667,256.876343 806.827698,256.460754 
	C806.895325,255.384720 807.034241,254.441910 807.173218,253.499084 
	C807.398376,253.509567 807.623596,253.520035 807.848816,253.530518 
	C807.759888,254.722885 807.670959,255.915268 807.323364,257.291687 
z"/>
<path fill="#111212" opacity="1.000000" stroke="none" 
	d="
M42.062099,208.542358 
	C42.027996,208.582718 41.913902,208.433472 41.913902,208.433472 
	C41.913902,208.433472 42.096203,208.501984 42.062099,208.542358 
z"/>
<path fill="#111212" opacity="1.000000" stroke="none" 
	d="
M635.072876,563.550171 
	C635.033997,563.596497 634.901733,563.427307 634.901733,563.427307 
	C634.901733,563.427307 635.111694,563.503845 635.072876,563.550171 
z"/>
<path fill="#111212" opacity="1.000000" stroke="none" 
	d="
M630.509399,561.498535 
	C630.483337,561.508057 630.535461,561.489014 630.509399,561.498535 
z"/>
<path fill="#111212" opacity="1.000000" stroke="none" 
	d="
M756.503296,562.505554 
	C756.495239,562.481567 756.511414,562.529541 756.503296,562.505554 
z"/>
<path fill="#000000" opacity="1.000000" stroke="none" 
	d="
M60.188068,180.959625 
	C59.471455,178.832245 58.139370,176.707382 58.130604,174.577087 
	C58.000282,142.914047 58.203724,111.249146 57.973583,79.587250 
	C57.876247,66.196465 69.823097,52.792618 86.161140,52.815933 
	C298.973938,53.119682 511.787354,53.016994 724.600586,53.018620 
	C733.932922,53.018688 743.269226,52.869690 752.596741,53.087311 
	C767.027100,53.423988 777.909790,64.304535 777.935547,78.631187 
	C778.027893,129.959457 777.972290,181.287994 777.966980,232.616440 
	C777.966919,233.279007 777.893066,233.941574 777.138733,234.613251 
	C777.138733,210.770889 777.138733,186.928513 777.138733,163.086136 
	C776.759155,163.085556 776.379578,163.084976 776.000000,163.084396 
	C776.000000,169.208099 776.003723,175.331818 775.999268,181.455521 
	C775.987427,197.787231 776.031616,214.119293 775.930176,230.450470 
	C775.886719,237.439896 774.200684,238.608688 767.714783,235.803558 
	C741.060913,224.275909 713.178589,219.577423 684.296692,221.045883 
	C650.572998,222.760544 619.646545,232.880783 591.917053,252.520432 
	C558.866394,275.928802 536.427063,306.998352 525.207153,345.769775 
	C521.766296,357.660065 520.000183,370.261658 519.241882,382.646179 
	C518.215576,399.408112 517.772766,416.439728 522.210938,432.860687 
	C525.674683,445.676331 530.302612,458.190887 534.739502,470.723755 
	C536.713135,476.298859 535.800354,478.332092 529.774170,478.866150 
	C527.952820,479.027527 526.110901,478.986145 524.278381,478.986176 
	C378.292236,478.987183 232.306030,478.947479 86.320000,479.078400 
	C78.525566,479.085388 71.866196,476.920349 66.034210,472.125092 
	C62.411591,469.146515 59.233833,465.631531 60.368736,459.588623 
	C60.750622,452.315186 60.968037,445.712433 60.984818,439.109192 
	C61.049522,413.648499 61.056690,388.187653 61.031513,362.726898 
	C61.030956,362.166107 60.388248,361.605927 60.037235,361.038788 
	C60.029385,361.032104 60.012379,361.022980 60.012379,361.022980 
	C61.661945,360.338348 63.252953,359.345123 64.970596,359.019257 
	C76.020302,356.922607 86.261719,352.880981 96.458351,348.079346 
	C105.741402,343.707886 112.374756,336.419830 119.924728,330.182495 
	C124.642494,326.284973 129.018341,321.258301 131.730759,315.830383 
	C135.092499,309.103088 136.888550,301.518250 138.804657,294.159027 
	C143.086105,277.715027 142.715530,261.323059 138.784683,244.709610 
	C137.224243,238.114578 135.384064,232.287628 130.923843,227.128082 
	C124.828026,220.076477 122.695976,210.336807 114.877266,204.224884 
	C110.175034,200.549103 106.183250,196.299606 99.928864,195.067581 
	C97.271889,194.544174 95.023170,192.209625 92.382217,191.295029 
	C84.063286,188.414078 75.646729,185.814957 67.267159,183.109238 
	C65.709023,182.606110 64.147156,182.114532 62.461502,181.232697 
	C61.863171,178.369965 60.986111,175.893219 60.979664,173.414185 
	C60.910416,146.772369 60.978664,120.130196 61.008743,93.488121 
	C61.010902,91.572838 61.009022,89.657555 61.009022,87.742271 
	C60.241581,88.181725 59.973007,88.615677 59.973824,89.049126 
	C60.031506,119.685982 60.110676,150.322800 60.188068,180.959625 
M774.726379,158.942917 
	C774.726379,158.942917 774.878296,159.247452 774.878296,159.247452 
	C774.878296,159.247452 775.226990,159.201218 775.287415,159.029068 
	C775.287415,159.029068 775.134583,158.727356 775.134583,158.727356 
	C775.134583,158.727356 774.787231,158.770706 774.726379,158.942917 
M262.367065,273.656219 
	C262.596924,273.794037 262.826752,273.931854 263.575195,274.253357 
	C263.726105,274.357513 263.877045,274.461700 263.988892,274.626099 
	C263.988892,274.626099 263.950836,274.686920 264.060669,275.675415 
	C263.968658,290.636230 264.340149,305.616089 263.560547,321.967499 
	C263.656860,324.735046 263.805603,329.009979 263.986511,333.357727 
	C263.986511,333.357727 264.019714,333.430084 263.662292,333.945068 
	C263.781555,334.486176 263.900848,335.027313 263.988190,335.662903 
	C263.988190,335.662903 263.957245,335.757721 264.070892,336.732208 
	C264.367096,343.777740 264.663330,350.823273 265.226318,358.497528 
	C266.814941,359.997711 268.403564,361.497925 270.602753,363.579498 
	C275.696289,363.684448 280.792633,363.942566 285.882538,363.849487 
	C290.586487,363.763489 295.283600,363.301147 300.660492,362.773529 
	C304.671631,361.516632 305.813568,358.412140 305.933777,354.627380 
	C306.282440,343.648468 306.916779,332.670532 306.938721,321.691193 
	C306.975647,303.231934 306.635559,284.771820 306.435486,266.312225 
	C306.343536,257.831085 306.137146,249.350677 306.105194,240.869492 
	C306.021210,218.591812 306.118500,196.312317 305.812103,174.038101 
	C305.775146,171.350983 303.699554,168.691895 301.816345,165.510376 
	C291.290649,165.647766 280.764923,165.785141 269.595520,166.192383 
	C268.063080,167.797043 266.530640,169.401688 264.427704,171.620682 
	C264.334106,172.443359 264.187805,173.263901 264.154541,174.089005 
	C262.982025,203.181122 266.540649,232.370148 262.248566,261.422699 
	C261.737061,264.884979 263.333893,268.658783 263.989685,272.360168 
	C263.989685,272.360168 264.026886,272.431641 263.549072,272.784790 
	C263.209290,272.982208 262.869476,273.179657 262.367065,273.656219 
M343.489380,166.331009 
	C340.366089,168.429565 338.467224,171.021790 340.014893,175.932785 
	C340.016418,181.948944 340.017975,187.965103 339.824158,194.602234 
	C339.028046,200.240829 343.480072,200.734360 347.710541,202.607285 
	C357.130676,202.735352 366.550812,202.863419 376.910126,202.993683 
	C380.903931,203.016205 384.975403,202.580490 388.861511,203.238754 
	C391.075806,203.613846 392.987579,205.774887 395.132690,208.044815 
	C395.133881,255.582001 395.122711,303.119202 395.172028,350.656342 
	C395.174530,353.078766 395.697327,355.500671 396.251068,358.532410 
	C397.831665,360.015778 399.412231,361.499115 401.553131,363.619629 
	C408.314636,363.729736 415.077179,363.957428 421.837250,363.900330 
	C425.215790,363.871765 428.589935,363.323090 432.588440,362.815338 
	C434.055511,361.633240 435.522583,360.451111 437.429810,358.508759 
	C437.631927,356.365326 438.008667,354.222015 438.010468,352.078400 
	C438.048981,305.923706 438.048096,259.768982 438.039154,213.614243 
	C438.038849,212.099976 437.874268,210.585739 437.786255,209.071487 
	C436.945923,210.937866 436.945679,212.743713 436.945923,214.549561 
	C436.950562,252.039871 436.980682,289.530212 436.943359,327.020477 
	C436.933075,337.346588 436.721619,347.672455 436.284912,357.996368 
	C436.284912,357.996368 435.967316,357.994080 435.976776,357.057495 
	C435.987244,308.617737 435.986084,260.178009 436.017578,211.738251 
	C436.024139,201.691025 437.637146,200.088913 447.573425,200.043976 
	C458.392944,199.995056 469.212830,200.025253 480.032318,199.970657 
	C483.481384,199.953262 487.550995,199.544785 488.148773,195.659332 
	C489.698059,185.589905 491.896973,175.241501 484.587158,165.626785 
	C482.936310,165.516296 481.285461,165.310043 479.634583,165.309296 
	C436.542511,165.289963 393.450470,165.282471 350.358429,165.319000 
	C348.261169,165.320786 346.164276,165.740952 343.489380,166.331009 
M695.531555,55.150471 
	C696.363342,55.012928 697.195129,54.875385 698.026917,54.737843 
	C697.992371,54.630157 697.957825,54.522469 697.923279,54.414780 
	C646.540405,54.414780 595.157471,54.414780 543.774536,54.414780 
	C562.704834,55.120735 581.633606,55.113678 600.562317,55.122326 
	C631.992676,55.136684 663.423096,55.161129 695.531555,55.150471 
M267.899567,55.425129 
	C292.124878,55.425129 316.350189,55.425129 340.575500,55.425129 
	C340.573090,55.103653 340.570679,54.782181 340.568237,54.460705 
	C296.183014,54.460705 251.797760,54.460705 207.412521,54.460705 
	C207.412949,54.764816 207.413376,55.068928 207.413803,55.373039 
	C227.352570,55.373039 247.291351,55.373039 267.899567,55.425129 
M505.500000,54.028156 
	C473.986816,54.028156 442.473663,54.028156 410.960480,54.028156 
	C410.961731,54.334549 410.962952,54.640942 410.964172,54.947334 
	C452.586121,54.947334 494.208099,54.947334 535.830078,54.947334 
	C535.832764,54.641006 535.835510,54.334679 535.838196,54.028351 
	C526.058838,54.028351 516.279419,54.028351 505.500000,54.028156 
M138.500000,54.001869 
	C120.298248,54.001869 102.096489,54.001869 83.894737,54.001869 
	C83.896584,54.303131 83.898430,54.604393 83.900276,54.905655 
	C115.169456,54.905655 146.438629,54.905655 177.707809,54.905655 
	C177.710571,54.604931 177.713318,54.304211 177.716064,54.003487 
	C164.977386,54.003487 152.238693,54.003487 138.500000,54.001869 
M777.019348,141.486816 
	C777.019348,121.431557 777.019348,101.376297 777.019348,81.321037 
	C776.748169,81.324669 776.477051,81.328308 776.205872,81.331947 
	C776.205872,105.509392 776.205872,129.686829 776.205872,153.864273 
	C776.476074,153.866547 776.746338,153.868835 777.016541,153.871109 
	C777.016541,150.073471 777.016541,146.275848 777.019348,141.486816 
M732.499634,54.003201 
	C723.844177,54.003201 715.188782,54.003201 706.533325,54.003201 
	C706.542969,54.303135 706.552612,54.603073 706.562256,54.903008 
	C721.321045,54.903008 736.079834,54.903008 750.838684,54.903008 
	C750.839478,54.603752 750.840271,54.304493 750.841003,54.005238 
	C745.060486,54.005238 739.279907,54.005238 732.499634,54.003201 
M368.315582,55.150623 
	C370.649384,55.150623 372.983185,55.150623 375.316986,55.150623 
	C375.300568,54.884766 375.284180,54.618904 375.267761,54.353046 
	C366.310852,54.353046 357.353912,54.353046 348.396973,54.353046 
	C348.395416,54.634830 348.393829,54.916618 348.392273,55.198402 
	C354.793793,55.198402 361.195343,55.198402 368.315582,55.150623 
M321.315460,477.102631 
	C329.332184,477.102631 337.348907,477.102631 345.365631,477.102631 
	C345.360840,476.852570 345.356049,476.602539 345.351257,476.352478 
	C336.611206,476.352478 327.871155,476.352478 319.131073,476.352478 
	C319.131439,476.524902 319.131775,476.697327 319.132141,476.869751 
	C319.612793,476.944122 320.093445,477.018524 321.315460,477.102631 
M267.289307,477.052490 
	C275.284210,477.052490 283.279144,477.052490 291.274048,477.052490 
	C291.268555,476.808929 291.263062,476.565399 291.257538,476.321838 
	C282.529633,476.321838 273.801697,476.321838 265.073761,476.321838 
	C265.075073,476.489960 265.076385,476.658051 265.077667,476.826172 
	C265.564331,476.884216 266.050995,476.942291 267.289307,477.052490 
M400.104431,54.042377 
	C394.709686,54.042377 389.314941,54.042377 383.920197,54.042377 
	C383.924469,54.323841 383.928711,54.605305 383.932983,54.886768 
	C389.834167,54.886768 395.735352,54.886768 401.636536,54.886768 
	C401.486053,54.627548 401.364990,54.342499 401.170868,54.121632 
	C401.091492,54.031364 400.854095,54.080013 400.104431,54.042377 
M189.249420,54.979973 
	C192.489075,54.979973 195.728729,54.979973 198.968384,54.979973 
	C198.961624,54.753338 198.954865,54.526707 198.948105,54.300072 
	C194.686310,54.300072 190.424530,54.300072 186.162735,54.300072 
	C186.158600,54.469170 186.154465,54.638264 186.150314,54.807362 
	C186.944412,54.862640 187.738495,54.917919 189.249420,54.979973 
M314.033997,476.564148 
	C313.982880,477.186981 313.931763,477.809814 313.880676,478.432617 
	C313.472382,478.313263 313.064056,478.193878 312.655731,478.074554 
	C312.938293,477.519501 313.220886,476.964417 314.033997,476.564148 
M262.209656,337.265442 
	C262.393738,337.302673 262.577850,337.339874 262.761932,337.377106 
	C262.600220,337.249390 262.438507,337.121674 262.209656,337.265442 
M66.469978,181.493149 
	C66.469978,181.493149 66.671036,181.556625 66.671036,181.556625 
	C66.671036,181.556625 66.515465,181.424591 66.469978,181.493149 
M262.419739,270.916473 
	C262.419739,270.916473 262.529266,271.095856 262.529266,271.095856 
	C262.529266,271.095856 262.527039,270.866455 262.419739,270.916473 
M344.504913,55.414185 
	C344.504913,55.414185 344.560150,55.514687 344.504913,55.414185 
M181.579132,55.497166 
	C181.579132,55.497166 181.477158,55.552334 181.579132,55.497166 
M203.579056,55.496281 
	C203.579056,55.496281 203.476929,55.551491 203.579056,55.496281 
M379.579132,55.497192 
	C379.579132,55.497192 379.477142,55.552334 379.579132,55.497192 
M406.496796,55.574894 
	C406.496796,55.574894 406.442078,55.473087 406.496796,55.574894 
M539.421936,55.490646 
	C539.421936,55.490646 539.523010,55.434685 539.421936,55.490646 
M702.504883,55.413769 
	C702.504883,55.413769 702.560242,55.514248 702.504883,55.413769 
z"/>
<path fill="#000000" opacity="1.000000" stroke="none" 
	d="
M626.342285,527.665894 
	C617.996582,522.348755 609.017944,518.939819 602.257690,511.555115 
	C593.805603,502.322205 583.250549,494.890900 575.512634,485.163116 
	C568.034546,475.761963 561.913208,464.900726 557.066956,453.859558 
	C543.367798,422.648682 542.519836,390.024597 550.481323,357.366791 
	C555.334106,337.460663 565.054321,319.630463 578.454041,303.782257 
	C590.507263,289.526611 604.176086,277.489441 620.285767,268.029358 
	C641.131104,255.788300 663.641235,249.205185 687.627930,248.091202 
	C720.824707,246.549454 751.300232,255.699203 778.959656,273.812469 
	C797.330750,285.843109 811.889954,301.852692 823.434998,320.477936 
	C838.973572,345.545868 845.984436,373.168579 844.918335,402.412231 
	C844.079041,425.433624 837.983337,447.370941 826.536865,467.707764 
	C815.543884,487.238770 800.951111,503.635895 782.683899,516.203979 
	C762.013489,530.425598 739.076477,539.730591 713.717896,542.086426 
	C693.495728,543.964905 673.376526,543.879089 653.776611,537.925049 
	C644.571777,535.128906 635.702515,531.228394 626.342285,527.665894 
M677.447388,390.566376 
	C677.957153,393.117065 678.891235,395.664825 678.908875,398.218903 
	C679.037659,416.883240 679.005615,435.548859 678.976074,454.214020 
	C678.960083,464.308533 678.282715,464.942505 668.190735,465.000122 
	C656.110596,465.069031 654.708557,466.516449 654.989014,478.629425 
	C654.996704,478.962646 654.997681,479.296112 655.012451,479.629028 
	C655.295044,485.996796 657.128113,487.939819 663.573364,488.033997 
	C672.403931,488.163025 681.237854,488.064362 690.070374,488.059570 
	C702.569336,488.052765 715.068298,488.061249 727.567139,488.023529 
	C731.868958,488.010529 736.029907,486.991608 736.615845,482.039276 
	C738.278870,467.983551 735.643799,464.011932 723.483582,464.984192 
	C722.986938,465.023895 722.483948,464.992004 721.984131,464.983734 
	C714.664490,464.862793 713.086853,463.388245 713.047424,456.183289 
	C712.984497,444.684570 713.042358,433.185242 713.037842,421.686157 
	C713.031433,405.520874 713.069153,389.355286 712.974060,373.190460 
	C712.938843,367.213593 710.895752,364.299408 705.861328,364.219543 
	C690.035767,363.968445 674.203247,364.055267 658.374695,364.179169 
	C654.639038,364.208405 651.773682,366.410126 651.380005,370.143646 
	C650.042114,382.833130 650.760254,388.429840 665.005737,388.038025 
	C667.169861,387.978516 669.378540,387.818970 671.492249,388.163055 
	C673.373535,388.469360 675.151611,389.409729 676.143921,389.964722 
	C674.064453,389.964722 671.984985,389.964722 669.905579,389.964722 
	C669.929199,390.252167 669.952881,390.539612 669.976501,390.827087 
	C671.739990,391.050110 673.503479,391.273132 675.885193,391.574341 
	C675.885193,414.894287 675.885193,438.055542 675.885193,461.216766 
	C676.234192,461.214508 676.583252,461.212250 676.932251,461.209991 
	C676.932251,437.481415 676.932251,413.752869 677.447388,390.566376 
M704.961853,293.875580 
	C698.124817,294.204529 690.785461,293.056946 684.557312,295.175629 
	C672.311096,299.341583 666.880005,317.054108 672.985779,329.099548 
	C673.203674,329.529449 673.530334,329.933258 673.888611,330.258636 
	C680.878540,336.606415 689.237061,339.384064 698.466675,338.319489 
	C703.251343,337.767639 709.403992,336.991028 712.197510,333.865784 
	C717.440430,328.000275 720.361389,320.245819 718.902161,311.781433 
	C717.497498,303.633209 712.818115,297.941559 704.961853,293.875580 
M722.216492,491.162994 
	C725.258850,491.870117 728.301208,492.577209 731.681641,493.362885 
	C731.681641,492.625092 731.681641,491.368469 731.681641,490.113464 
	C708.316101,490.113464 685.283875,490.113464 662.251648,490.113464 
	C662.250000,490.462463 662.248352,490.811432 662.246704,491.160431 
	C681.923706,491.160431 701.600769,491.160431 722.216492,491.162994 
M793.514893,291.230591 
	C793.427673,290.381378 793.340393,289.532135 793.253174,288.682922 
	C792.765564,288.775391 792.277954,288.867828 791.790283,288.960297 
	C792.148743,289.598267 792.507141,290.236237 793.514893,291.230591 
z"/>
<path fill="#000000" opacity="1.000000" stroke="none" 
	d="
M59.956039,457.982941 
	C59.315964,455.823608 58.128033,453.666595 58.118767,451.504547 
	C57.998310,423.411896 58.017185,395.318390 58.112335,367.225494 
	C58.118729,365.338013 59.020393,363.453552 59.759026,361.295349 
	C60.012379,361.022980 60.029385,361.032104 60.025806,361.504150 
	C60.000164,393.978455 59.978100,425.980713 59.956039,457.982941 
z"/>
<path fill="#464545" opacity="1.000000" stroke="none" 
	d="
M60.053574,458.245850 
	C59.978100,425.980713 60.000164,393.978455 60.033657,361.510864 
	C60.388248,361.605927 61.030956,362.166107 61.031513,362.726898 
	C61.056690,388.187653 61.049522,413.648499 60.984818,439.109192 
	C60.968037,445.712433 60.750622,452.315186 60.486839,459.264221 
	C60.282585,459.243134 60.216850,458.875977 60.053574,458.245850 
z"/>
<path fill="#464545" opacity="1.000000" stroke="none" 
	d="
M60.501431,180.964661 
	C60.110676,150.322800 60.031506,119.685982 59.973824,89.049126 
	C59.973007,88.615677 60.241581,88.181725 61.009022,87.742271 
	C61.009022,89.657555 61.010902,91.572838 61.008743,93.488121 
	C60.978664,120.130196 60.910416,146.772369 60.979664,173.414185 
	C60.986111,175.893219 61.863171,178.369965 62.193527,181.005585 
	C61.638973,181.098846 61.226883,181.034271 60.501431,180.964661 
z"/>
<path fill="#000000" opacity="1.000000" stroke="none" 
	d="
M785.501221,547.516357 
	C785.521423,547.511414 785.481018,547.521301 785.501221,547.516357 
z"/>
<path fill="#111212" opacity="1.000000" stroke="none" 
	d="
M484.996094,165.989807 
	C491.896973,175.241501 489.698059,185.589905 488.148773,195.659332 
	C487.550995,199.544785 483.481384,199.953262 480.032318,199.970657 
	C469.212830,200.025253 458.392944,199.995056 447.573425,200.043976 
	C437.637146,200.088913 436.024139,201.691025 436.017578,211.738251 
	C435.986084,260.178009 435.987244,308.617737 435.680725,357.733643 
	C433.264587,359.256439 431.161316,360.777100 429.021393,360.830566 
	C420.715515,361.038025 412.398010,360.776550 404.084778,360.694733 
	C400.405365,360.658539 398.570038,358.557831 398.293793,355.135406 
	C398.013367,351.661041 397.976379,348.160370 397.974701,344.671173 
	C397.953644,300.757141 397.982117,256.843079 397.938385,212.929077 
	C397.928345,202.860184 394.553680,199.207886 385.630554,199.332626 
	C375.343140,199.476440 365.045410,200.069565 354.774872,199.746185 
	C349.450073,199.578491 343.079651,200.583115 340.019501,193.981262 
	C340.017975,187.965103 340.016418,181.948944 340.158173,175.157257 
	C342.215302,171.957993 344.129120,169.534256 346.406311,167.104675 
	C347.497009,167.106705 348.224396,167.114563 349.346252,167.247742 
	C351.384918,167.569870 353.028992,167.937210 354.673401,167.938583 
	C394.550873,167.972198 434.428497,168.002640 474.305573,167.875763 
	C476.600433,167.868469 478.891052,166.522308 481.564087,165.730042 
	C482.961731,165.770477 483.978912,165.880142 484.996094,165.989807 
z"/>
<path fill="#000000" opacity="1.000000" stroke="none" 
	d="
M302.568848,166.019821 
	C303.699554,168.691895 305.775146,171.350983 305.812103,174.038101 
	C306.118500,196.312317 306.021210,218.591812 306.105194,240.869492 
	C306.137146,249.350677 306.343536,257.831085 306.435486,266.312225 
	C306.635559,284.771820 306.975647,303.231934 306.938721,321.691193 
	C306.916779,332.670532 306.282440,343.648468 305.933777,354.627380 
	C305.813568,358.412140 304.671631,361.516632 299.854675,362.900940 
	C289.363312,363.018280 279.677734,363.008209 269.992157,362.998138 
	C268.403564,361.497925 266.814941,359.997711 265.078186,357.723633 
	C264.605804,349.885712 264.281525,342.821716 263.957275,335.757721 
	C263.957245,335.757721 263.988190,335.662903 264.091278,335.080658 
	C264.136139,334.142303 264.077911,333.786194 264.019714,333.430084 
	C264.019714,333.430084 263.986511,333.357727 264.172699,332.930298 
	C264.504761,331.693939 264.776520,330.885223 264.777985,330.076050 
	C264.808868,312.883606 264.827728,295.691101 264.778534,278.498810 
	C264.774872,277.227386 264.239166,275.957520 263.950836,274.686920 
	C263.950836,274.686920 263.988892,274.626099 264.095673,274.062378 
	C264.143921,273.142975 264.085419,272.787292 264.026917,272.431641 
	C264.026886,272.431641 263.989685,272.360168 264.175659,271.933563 
	C264.523193,269.036224 264.819366,266.565826 264.825867,264.094666 
	C264.907654,233.065292 264.947601,202.035812 264.998230,171.006348 
	C266.530640,169.401688 268.063080,167.797043 270.366943,166.002686 
	C281.615204,165.881943 292.092010,165.950882 302.568848,166.019821 
M304.020966,204.500000 
	C304.006714,195.837128 304.110352,187.171967 303.942841,178.512054 
	C303.794891,170.863098 301.978699,169.114868 294.459564,168.828232 
	C288.139740,168.587341 281.793976,168.705582 275.501373,168.172531 
	C270.342499,167.735519 268.068909,170.225815 267.329803,174.772903 
	C266.984772,176.895569 266.942902,179.084686 266.942444,181.243698 
	C266.931122,237.719681 266.940735,294.195648 266.963135,350.671631 
	C266.963867,352.499237 266.696960,354.510803 267.361145,356.099518 
	C267.953552,357.516632 269.593536,359.375183 270.892487,359.475891 
	C279.814575,360.167847 288.765717,360.542664 297.713806,360.807007 
	C300.548370,360.890778 303.059387,359.892151 303.203003,356.353210 
	C303.485748,349.384186 303.975281,342.414764 303.986816,335.444885 
	C304.058594,292.130035 304.021545,248.814987 304.020966,204.500000 
z"/>
<path fill="#000000" opacity="1.000000" stroke="none" 
	d="
M339.921814,194.291748 
	C343.079651,200.583115 349.450073,199.578491 354.774872,199.746185 
	C365.045410,200.069565 375.343140,199.476440 385.630554,199.332626 
	C394.553680,199.207886 397.928345,202.860184 397.938385,212.929077 
	C397.982117,256.843079 397.953644,300.757141 397.974701,344.671173 
	C397.976379,348.160370 398.013367,351.661041 398.293793,355.135406 
	C398.570038,358.557831 400.405365,360.658539 404.084778,360.694733 
	C412.398010,360.776550 420.715515,361.038025 429.021393,360.830566 
	C431.161316,360.777100 433.264587,359.256439 435.676025,358.201904 
	C435.967316,357.994080 436.284912,357.996368 436.537048,358.316223 
	C436.855988,358.847046 436.922821,359.058044 436.989685,359.268982 
	C435.522583,360.451111 434.055511,361.633240 431.810913,362.905396 
	C421.019836,362.991150 411.006348,362.986816 400.992828,362.982483 
	C399.412231,361.499115 397.831665,360.015778 396.105072,357.764282 
	C395.919678,309.834961 395.893860,262.673706 395.806824,215.512558 
	C395.801666,212.718475 395.304016,209.925323 395.035583,207.131714 
	C392.987579,205.774887 391.075806,203.613846 388.861511,203.238754 
	C384.975403,202.580490 380.903931,203.016205 376.165894,202.669891 
	C365.984406,202.242050 356.547150,202.137985 347.109924,202.033920 
	C343.480072,200.734360 339.028046,200.240829 339.921814,194.291748 
z"/>
<path fill="#111212" opacity="1.000000" stroke="none" 
	d="
M695.192505,55.165897 
	C663.423096,55.161129 631.992676,55.136684 600.562317,55.122326 
	C581.633606,55.113678 562.704834,55.120735 543.774536,54.414780 
	C595.157471,54.414780 646.540405,54.414780 697.923279,54.414780 
	C697.957825,54.522469 697.992371,54.630157 698.026917,54.737843 
	C697.195129,54.875385 696.363342,55.012928 695.192505,55.165897 
z"/>
<path fill="#111212" opacity="1.000000" stroke="none" 
	d="
M267.564850,55.399086 
	C247.291351,55.373039 227.352570,55.373039 207.413803,55.373039 
	C207.413376,55.068928 207.412949,54.764816 207.412521,54.460705 
	C251.797760,54.460705 296.183014,54.460705 340.568237,54.460705 
	C340.570679,54.782181 340.573090,55.103653 340.575500,55.425129 
	C316.350189,55.425129 292.124878,55.425129 267.564850,55.399086 
z"/>
<path fill="#111212" opacity="1.000000" stroke="none" 
	d="
M437.209747,358.888885 
	C436.922821,359.058044 436.855988,358.847046 436.695801,358.317261 
	C436.721619,347.672455 436.933075,337.346588 436.943359,327.020477 
	C436.980682,289.530212 436.950562,252.039871 436.945923,214.549561 
	C436.945679,212.743713 436.945923,210.937866 437.786255,209.071487 
	C437.874268,210.585739 438.038849,212.099976 438.039154,213.614243 
	C438.048096,259.768982 438.048981,305.923706 438.010468,352.078400 
	C438.008667,354.222015 437.631927,356.365326 437.209747,358.888885 
z"/>
<path fill="#464545" opacity="1.000000" stroke="none" 
	d="
M395.084137,207.588272 
	C395.304016,209.925323 395.801666,212.718475 395.806824,215.512558 
	C395.893860,262.673706 395.919678,309.834961 395.968475,357.459503 
	C395.697327,355.500671 395.174530,353.078766 395.172028,350.656342 
	C395.122711,303.119202 395.133881,255.582001 395.084137,207.588272 
z"/>
<path fill="#111212" opacity="1.000000" stroke="none" 
	d="
M506.000000,54.028252 
	C516.279419,54.028351 526.058838,54.028351 535.838196,54.028351 
	C535.835510,54.334679 535.832764,54.641006 535.830078,54.947334 
	C494.208099,54.947334 452.586121,54.947334 410.964172,54.947334 
	C410.962952,54.640942 410.961731,54.334549 410.960480,54.028156 
	C442.473663,54.028156 473.986816,54.028156 506.000000,54.028252 
z"/>
<path fill="#464545" opacity="1.000000" stroke="none" 
	d="
M484.791626,165.808289 
	C483.978912,165.880142 482.961731,165.770477 481.078735,165.707138 
	C436.475525,165.804688 392.738159,165.855927 348.625610,165.853897 
	C347.500427,165.876450 346.750366,165.952271 345.678589,166.005798 
	C344.926971,165.977768 344.497070,165.972031 344.067200,165.966293 
	C346.164276,165.740952 348.261169,165.320786 350.358429,165.319000 
	C393.450470,165.282471 436.542511,165.289963 479.634583,165.309296 
	C481.285461,165.310043 482.936310,165.516296 484.791626,165.808289 
z"/>
<path fill="#464545" opacity="1.000000" stroke="none" 
	d="
M264.712982,171.313507 
	C264.947601,202.035812 264.907654,233.065292 264.825867,264.094666 
	C264.819366,266.565826 264.523193,269.036224 264.157532,271.897583 
	C263.333893,268.658783 261.737061,264.884979 262.248566,261.422699 
	C266.540649,232.370148 262.982025,203.181122 264.154541,174.089005 
	C264.187805,173.263901 264.334106,172.443359 264.712982,171.313507 
z"/>
<path fill="#111212" opacity="1.000000" stroke="none" 
	d="
M139.000000,54.002678 
	C152.238693,54.003487 164.977386,54.003487 177.716064,54.003487 
	C177.713318,54.304211 177.710571,54.604931 177.707809,54.905655 
	C146.438629,54.905655 115.169456,54.905655 83.900276,54.905655 
	C83.898430,54.604393 83.896584,54.303131 83.894737,54.001869 
	C102.096489,54.001869 120.298248,54.001869 139.000000,54.002678 
z"/>
<path fill="#111212" opacity="1.000000" stroke="none" 
	d="
M777.017944,141.982513 
	C777.016541,146.275848 777.016541,150.073471 777.016541,153.871109 
	C776.746338,153.868835 776.476074,153.866547 776.205872,153.864273 
	C776.205872,129.686829 776.205872,105.509392 776.205872,81.331947 
	C776.477051,81.328308 776.748169,81.324669 777.019348,81.321037 
	C777.019348,101.376297 777.019348,121.431557 777.017944,141.982513 
z"/>
<path fill="#464545" opacity="1.000000" stroke="none" 
	d="
M264.005737,275.181152 
	C264.239166,275.957520 264.774872,277.227386 264.778534,278.498810 
	C264.827728,295.691101 264.808868,312.883606 264.777985,330.076050 
	C264.776520,330.885223 264.504761,331.693939 264.156616,332.893860 
	C263.805603,329.009979 263.656860,324.735046 263.560547,321.967499 
	C264.340149,305.616089 263.968658,290.636230 264.005737,275.181152 
z"/>
<path fill="#111212" opacity="1.000000" stroke="none" 
	d="
M732.999512,54.004219 
	C739.279907,54.005238 745.060486,54.005238 750.841003,54.005238 
	C750.840271,54.304493 750.839478,54.603752 750.838684,54.903008 
	C736.079834,54.903008 721.321045,54.903008 706.562256,54.903008 
	C706.552612,54.603073 706.542969,54.303135 706.533325,54.003201 
	C715.188782,54.003201 723.844177,54.003201 732.999512,54.004219 
z"/>
<path fill="#111212" opacity="1.000000" stroke="none" 
	d="
M367.956238,55.174515 
	C361.195343,55.198402 354.793793,55.198402 348.392273,55.198402 
	C348.393829,54.916618 348.395416,54.634830 348.396973,54.353046 
	C357.353912,54.353046 366.310852,54.353046 375.267761,54.353046 
	C375.284180,54.618904 375.300568,54.884766 375.316986,55.150623 
	C372.983185,55.150623 370.649384,55.150623 367.956238,55.174515 
z"/>
<path fill="#464545" opacity="1.000000" stroke="none" 
	d="
M302.192596,165.765106 
	C292.092010,165.950882 281.615204,165.881943 270.688782,165.867752 
	C280.764923,165.785141 291.290649,165.647766 302.192596,165.765106 
z"/>
<path fill="#464545" opacity="1.000000" stroke="none" 
	d="
M401.272980,363.301056 
	C411.006348,362.986816 421.019836,362.991150 431.499695,363.002563 
	C428.589935,363.323090 425.215790,363.871765 421.837250,363.900330 
	C415.077179,363.957428 408.314636,363.729736 401.272980,363.301056 
z"/>
<path fill="#464545" opacity="1.000000" stroke="none" 
	d="
M320.944763,477.097778 
	C320.093445,477.018524 319.612793,476.944122 319.132141,476.869751 
	C319.131775,476.697327 319.131439,476.524902 319.131073,476.352478 
	C327.871155,476.352478 336.611206,476.352478 345.351257,476.352478 
	C345.356049,476.602539 345.360840,476.852570 345.365631,477.102631 
	C337.348907,477.102631 329.332184,477.102631 320.944763,477.097778 
z"/>
<path fill="#464545" opacity="1.000000" stroke="none" 
	d="
M266.913483,477.026428 
	C266.050995,476.942291 265.564331,476.884216 265.077667,476.826172 
	C265.076385,476.658051 265.075073,476.489960 265.073761,476.321838 
	C273.801697,476.321838 282.529633,476.321838 291.257538,476.321838 
	C291.263062,476.565399 291.268555,476.808929 291.274048,477.052490 
	C283.279144,477.052490 275.284210,477.052490 266.913483,477.026428 
z"/>
<path fill="#464545" opacity="1.000000" stroke="none" 
	d="
M270.297455,363.288818 
	C279.677734,363.008209 289.363312,363.018280 299.516296,363.016449 
	C295.283600,363.301147 290.586487,363.763489 285.882538,363.849487 
	C280.792633,363.942566 275.696289,363.684448 270.297455,363.288818 
z"/>
<path fill="#464545" opacity="1.000000" stroke="none" 
	d="
M347.410217,202.320602 
	C356.547150,202.137985 365.984406,202.242050 375.696289,202.668793 
	C366.550812,202.863419 357.130676,202.735352 347.410217,202.320602 
z"/>
<path fill="#111212" opacity="1.000000" stroke="none" 
	d="
M400.396484,54.053925 
	C400.854095,54.080013 401.091492,54.031364 401.170868,54.121632 
	C401.364990,54.342499 401.486053,54.627548 401.636536,54.886768 
	C395.735352,54.886768 389.834167,54.886768 383.932983,54.886768 
	C383.928711,54.605305 383.924469,54.323841 383.920197,54.042377 
	C389.314941,54.042377 394.709686,54.042377 400.396484,54.053925 
z"/>
<path fill="#000000" opacity="1.000000" stroke="none" 
	d="
M343.778290,166.148651 
	C344.497070,165.972031 344.926971,165.977768 345.688660,166.276428 
	C346.027954,166.749741 346.035461,166.930130 346.042969,167.110504 
	C344.129120,169.534256 342.215302,171.957993 340.148651,174.688828 
	C338.467224,171.021790 340.366089,168.429565 343.778290,166.148651 
z"/>
<path fill="#464545" opacity="1.000000" stroke="none" 
	d="
M264.014099,336.244965 
	C264.281525,342.821716 264.605804,349.885712 264.944824,357.409241 
	C264.663330,350.823273 264.367096,343.777740 264.014099,336.244965 
z"/>
<path fill="#111212" opacity="1.000000" stroke="none" 
	d="
M188.891006,54.976585 
	C187.738495,54.917919 186.944412,54.862640 186.150314,54.807362 
	C186.154465,54.638264 186.158600,54.469170 186.162735,54.300072 
	C190.424530,54.300072 194.686310,54.300072 198.948105,54.300072 
	C198.954865,54.526707 198.961624,54.753338 198.968384,54.979973 
	C195.728729,54.979973 192.489075,54.979973 188.891006,54.976585 
z"/>
<path fill="#464545" opacity="1.000000" stroke="none" 
	d="
M313.768738,476.486755 
	C313.220886,476.964417 312.938293,477.519501 312.655731,478.074524 
	C313.064056,478.193878 313.472382,478.313263 313.880676,478.432617 
	C313.931763,477.809814 313.982880,477.186981 313.768738,476.486755 
z"/>
<path fill="#464545" opacity="1.000000" stroke="none" 
	d="
M262.243225,337.129700 
	C262.438507,337.121674 262.600220,337.249390 262.761932,337.377106 
	C262.577850,337.339874 262.393738,337.302673 262.243225,337.129700 
z"/>
<path fill="#111212" opacity="1.000000" stroke="none" 
	d="
M66.492722,181.458862 
	C66.515465,181.424591 66.671036,181.556625 66.671036,181.556625 
	C66.671036,181.556625 66.469978,181.493149 66.492722,181.458862 
z"/>
<path fill="#464545" opacity="1.000000" stroke="none" 
	d="
M262.473389,270.891479 
	C262.527039,270.866455 262.529266,271.095856 262.529266,271.095856 
	C262.529266,271.095856 262.419739,270.916473 262.473389,270.891479 
z"/>
<path fill="#111212" opacity="1.000000" stroke="none" 
	d="
M344.532532,55.464436 
	C344.560150,55.514687 344.504913,55.414185 344.532532,55.464436 
z"/>
<path fill="#111212" opacity="1.000000" stroke="none" 
	d="
M181.528137,55.524750 
	C181.477158,55.552334 181.579132,55.497166 181.528137,55.524750 
z"/>
<path fill="#464545" opacity="1.000000" stroke="none" 
	d="
M263.841003,333.687561 
	C264.077911,333.786194 264.136139,334.142303 264.107239,335.033417 
	C263.900848,335.027313 263.781555,334.486176 263.841003,333.687561 
z"/>
<path fill="#111212" opacity="1.000000" stroke="none" 
	d="
M203.527985,55.523888 
	C203.476929,55.551491 203.579056,55.496281 203.527985,55.523888 
z"/>
<path fill="#464545" opacity="1.000000" stroke="none" 
	d="
M263.056610,274.069672 
	C262.826752,273.931854 262.596924,273.794037 262.578796,273.693176 
	C262.790558,273.730133 263.056610,274.069672 263.056610,274.069672 
z"/>
<path fill="#464545" opacity="1.000000" stroke="none" 
	d="
M263.787994,272.608215 
	C264.085419,272.787292 264.143921,273.142975 264.115204,274.032257 
	C263.877045,274.461700 263.726105,274.357513 263.315918,274.161499 
	C263.056610,274.069672 262.790558,273.730133 262.660126,273.553589 
	C262.869476,273.179657 263.209290,272.982208 263.787994,272.608215 
z"/>
<path fill="#111212" opacity="1.000000" stroke="none" 
	d="
M379.528137,55.524765 
	C379.477142,55.552334 379.579132,55.497192 379.528137,55.524765 
z"/>
<path fill="#111212" opacity="1.000000" stroke="none" 
	d="
M406.469421,55.523991 
	C406.442078,55.473087 406.496796,55.574894 406.469421,55.523991 
z"/>
<path fill="#111212" opacity="1.000000" stroke="none" 
	d="
M539.472473,55.462666 
	C539.523010,55.434685 539.421936,55.490646 539.472473,55.462666 
z"/>
<path fill="#111212" opacity="1.000000" stroke="none" 
	d="
M702.532593,55.464008 
	C702.560242,55.514248 702.504883,55.413769 702.532593,55.464008 
z"/>
<path fill="#111212" opacity="1.000000" stroke="none" 
	d="
M775.226990,159.201218 
	C775.226990,159.201218 774.878296,159.247452 774.878296,159.247452 
	C774.878296,159.247452 774.726379,158.942917 774.867798,158.963318 
	C775.009277,158.983734 775.226990,159.201218 775.226990,159.201218 
z"/>
<path fill="#111212" opacity="1.000000" stroke="none" 
	d="
M774.898254,158.877228 
	C774.787231,158.770706 775.134583,158.727356 775.134583,158.727356 
	C775.134583,158.727356 775.287415,159.029068 775.257202,159.115143 
	C775.226990,159.201218 775.009277,158.983734 774.898254,158.877228 
z"/>
<path fill="#111212" opacity="1.000000" stroke="none" 
	d="
M676.975281,390.070251 
	C675.151611,389.409729 673.373535,388.469360 671.492249,388.163055 
	C669.378540,387.818970 667.169861,387.978516 665.005737,388.038025 
	C650.760254,388.429840 650.042114,382.833130 651.380005,370.143646 
	C651.773682,366.410126 654.639038,364.208405 658.374695,364.179169 
	C674.203247,364.055267 690.035767,363.968445 705.861328,364.219543 
	C710.895752,364.299408 712.938843,367.213593 712.974060,373.190460 
	C713.069153,389.355286 713.031433,405.520874 713.037842,421.686157 
	C713.042358,433.185242 712.984497,444.684570 713.047424,456.183289 
	C713.086853,463.388245 714.664490,464.862793 721.984131,464.983734 
	C722.483948,464.992004 722.986938,465.023895 723.483582,464.984192 
	C735.643799,464.011932 738.278870,467.983551 736.615845,482.039276 
	C736.029907,486.991608 731.868958,488.010529 727.567139,488.023529 
	C715.068298,488.061249 702.569336,488.052765 690.070374,488.059570 
	C681.237854,488.064362 672.403931,488.163025 663.573364,488.033997 
	C657.128113,487.939819 655.295044,485.996796 655.012451,479.629028 
	C654.997681,479.296112 654.996704,478.962646 654.989014,478.629425 
	C654.708557,466.516449 656.110596,465.069031 668.190735,465.000122 
	C678.282715,464.942505 678.960083,464.308533 678.976074,454.214020 
	C679.005615,435.548859 679.037659,416.883240 678.908875,398.218903 
	C678.891235,395.664825 677.957153,393.117065 677.220032,390.288574 
	C676.992676,390.010773 676.975281,390.070251 676.975281,390.070251 
z"/>
<path fill="#111212" opacity="1.000000" stroke="none" 
	d="
M705.244995,294.070190 
	C712.818115,297.941559 717.497498,303.633209 718.902161,311.781433 
	C720.361389,320.245819 717.440430,328.000275 712.197510,333.865784 
	C709.403992,336.991028 703.251343,337.767639 698.466675,338.319489 
	C689.237061,339.384064 680.878540,336.606415 673.888611,330.258636 
	C673.530334,329.933258 673.203674,329.529449 672.985779,329.099548 
	C666.880005,317.054108 672.311096,299.341583 684.557312,295.175629 
	C690.785461,293.056946 698.124817,294.204529 705.244995,294.070190 
z"/>
<path fill="#464545" opacity="1.000000" stroke="none" 
	d="
M676.962463,390.017517 
	C676.932251,413.752869 676.932251,437.481415 676.932251,461.209991 
	C676.583252,461.212250 676.234192,461.214508 675.885193,461.216766 
	C675.885193,438.055542 675.885193,414.894287 675.885193,391.574341 
	C673.503479,391.273132 671.739990,391.050110 669.976501,390.827087 
	C669.952881,390.539612 669.929199,390.252167 669.905579,389.964722 
	C671.984985,389.964722 674.064453,389.964722 676.559570,390.017487 
	C676.975281,390.070251 676.992676,390.010773 676.962463,390.017517 
z"/>
<path fill="#464545" opacity="1.000000" stroke="none" 
	d="
M721.747192,491.161713 
	C701.600769,491.160431 681.923706,491.160431 662.246704,491.160431 
	C662.248352,490.811432 662.250000,490.462463 662.251648,490.113464 
	C685.283875,490.113464 708.316101,490.113464 731.681641,490.113464 
	C731.681641,491.368469 731.681641,492.625092 731.681641,493.362885 
	C728.301208,492.577209 725.258850,491.870117 721.747192,491.161713 
z"/>
<path fill="#464545" opacity="1.000000" stroke="none" 
	d="
M793.190247,291.052399 
	C792.507141,290.236237 792.148743,289.598267 791.790283,288.960297 
	C792.277954,288.867828 792.765564,288.775391 793.253174,288.682922 
	C793.340393,289.532135 793.427673,290.381378 793.190247,291.052399 
z"/>
<path fill="#000000" opacity="1.000000" stroke="none" 
	d="
M349.000793,165.907166 
	C392.738159,165.855927 436.475525,165.804688 480.698242,165.776352 
	C478.891052,166.522308 476.600433,167.868469 474.305573,167.875763 
	C434.428497,168.002640 394.550873,167.972198 354.673401,167.938583 
	C353.028992,167.937210 351.384918,167.569870 349.359436,166.943268 
	C348.985748,166.311386 348.993256,166.109268 349.000793,165.907166 
z"/>
<path fill="#000000" opacity="1.000000" stroke="none" 
	d="
M348.625610,165.853897 
	C348.993256,166.109268 348.985748,166.311386 348.964996,166.817963 
	C348.224396,167.114563 347.497009,167.106705 346.406311,167.104675 
	C346.035461,166.930130 346.027954,166.749741 346.010376,166.298721 
	C346.750366,165.952271 347.500427,165.876450 348.625610,165.853897 
z"/>
<path fill="#111212" opacity="1.000000" stroke="none" 
	d="
M304.020782,205.000000 
	C304.021545,248.814987 304.058594,292.130035 303.986816,335.444885 
	C303.975281,342.414764 303.485748,349.384186 303.203003,356.353210 
	C303.059387,359.892151 300.548370,360.890778 297.713806,360.807007 
	C288.765717,360.542664 279.814575,360.167847 270.892487,359.475891 
	C269.593536,359.375183 267.953552,357.516632 267.361145,356.099518 
	C266.696960,354.510803 266.963867,352.499237 266.963135,350.671631 
	C266.940735,294.195648 266.931122,237.719681 266.942444,181.243698 
	C266.942902,179.084686 266.984772,176.895569 267.329803,174.772903 
	C268.068909,170.225815 270.342499,167.735519 275.501373,168.172531 
	C281.793976,168.705582 288.139740,168.587341 294.459564,168.828232 
	C301.978699,169.114868 303.794891,170.863098 303.942841,178.512054 
	C304.110352,187.171967 304.006714,195.837128 304.020782,205.000000 
z"/>
</svg>